<svg width="271" height="240" viewBox="0 0 271 240" fill="none" xmlns="http://www.w3.org/2000/svg">
<path d="M162.897 0.0689883C164.27 0.0637353 165.384 1.17614 165.384 2.54995V182.455C165.384 217.923 135.983 247.755 102.094 237.289C82.0282 231.092 63.7953 222.009 48.4379 210.559C33.0804 199.108 20.8993 185.514 12.5881 170.553C4.27699 155.591 -0.000346857 139.556 0.000207894 123.363C-0.0459466 101.705 7.59375 80.4245 22.1461 61.6812C36.4523 43.2093 56.9418 27.8213 81.6124 17.0218C106.283 6.22243 134.292 0.381213 162.897 0.0689883Z" fill="#EDEDED"/>
<path d="M248.845 0C265.711 0 276.277 18.2284 267.896 32.864L209.992 133.97L151.981 228.545C143.414 242.511 123.12 242.511 114.553 228.545L56.542 133.97L24.401 77.8564C20.5292 71.0967 20.4155 62.7078 24.9037 56.3408C35.7461 40.9597 49.7195 28.0209 65.9427 18.4199C85.77 6.68595 108.278 0.339245 131.268 0H248.845Z" fill="white"/>
</svg>
